<svg xmlns="http://www.w3.org/2000/svg" viewBox="0 0 420 88" fill="none" role="img" aria-labelledby="logoTitle logoDesc">
  <title id="logoTitle">ToGoStory logo</title>
  <desc id="logoDesc">An abstract interwoven journey icon with the ToGoStory wordmark.</desc>
  <g transform="translate(4 6)">
    <path d="M58 8C43 8 29 16 20 30C10 45 10 61 21 69C32 77 47 71 61 54L78 34C90 20 105 13 121 13C139 13 153 25 153 41C153 57 140 70 123 72" stroke="#1A4F8A" stroke-width="6" stroke-linecap="round" stroke-linejoin="round"/>
    <path d="M24 18C31 10 42 4 56 4C73 4 88 11 101 27L116 45C125 56 136 61 148 61C163 61 175 50 175 36C175 21 162 9 145 9C132 9 119 15 107 27L79 56C67 68 55 76 40 76C24 76 11 69 4 58" stroke="#1A4F8A" stroke-width="6" stroke-linecap="round" stroke-linejoin="round"/>
  </g>
  <text x="194" y="57" fill="#1A4F8A" font-family="Inter, ui-sans-serif, system-ui, -apple-system, BlinkMacSystemFont, 'Segoe UI', sans-serif" font-size="42" font-weight="600" letter-spacing="-1.4">ToGoStory</text>
  <circle cx="405" cy="28" r="2.6" fill="#F4A261"/>
</svg>
